# xmcd
#
# Track frame offsets:
#       150
#       17595
#       31480
#       53320
#       76772
#       96252
#       113445
#       126210
#       142795
#       158735
#       170017
#       185202
#       202270
#       202812
#
# Disc length: 2892 seconds
#
# Revision: 14
# Processed by: cddbd v1.5.2PL0 Copyright (c) Steve Scherf et al.
# Submitted via: FreeDbEdit v0.1
#
DISCID=af0b4a0e
DTITLE=Dixie Chicks - Fly
DYEAR=1999
DGENRE=Country
TTITLE0=Ready to Run
TTITLE1=If I Fall You're Going Down With Me
TTITLE2=Cowboy Take Me Away
TTITLE3=Cold Day in July
TTITLE4=Goodbye Earl
TTITLE5=Hello Mr. Heartache
TTITLE6=Don't Waste Your Heart
TTITLE7=Sin Wagon
TTITLE8=Without You
TTITLE9=Some Days You Gotta Dance
TTITLE10=Hole in My Head
TTITLE11=Heartbreak Town
TTITLE12=[Silence]
TTITLE13=Let Him Fly
EXTD=YEAR: 1999 ID3G: 2
EXTT0=
EXTT1=
EXTT2=
EXTT3=
EXTT4=
EXTT5=
EXTT6=
EXTT7=
EXTT8=
EXTT9=
EXTT10=
EXTT11=
EXTT12=
EXTT13=
PLAYORDER=
